<svg xmlns="http://www.w3.org/2000/svg" width="1600" height="900" viewBox="0 0 1600 900"><rect width="1600" height="900" fill="#1a1613"/><line x1="-1600.0" y1="900" x2="368.0" y2="629.6" stroke="#c8bdb0" stroke-opacity="0.292" stroke-width="1"/><line x1="-1554.0" y1="900" x2="376.3" y2="629.6" stroke="#c8bdb0" stroke-opacity="0.292" stroke-width="1"/><line x1="-1508.0" y1="900" x2="384.6" y2="629.6" stroke="#c8bdb0" stroke-opacity="0.292" stroke-width="1"/><line x1="-1462.0" y1="900" x2="392.8" y2="629.6" stroke="#c8bdb0" stroke-opacity="0.292" stroke-width="1"/><line x1="-1416.0" y1="900" x2="401.1" y2="629.6" stroke="#c8bdb0" stroke-opacity="0.292" stroke-width="1"/><line x1="-1370.0" y1="900" x2="409.4" y2="629.6" stroke="#c8bdb0" stroke-opacity="0.292" stroke-width="1"/><line x1="-1324.0" y1="900" x2="417.7" y2="629.6" stroke="#c8bdb0" stroke-opacity="0.292" stroke-width="1"/><line x1="-1278.0" y1="900" x2="426.0" y2="629.6" stroke="#c8bdb0" stroke-opacity="0.292" stroke-width="1"/><line x1="-1232.0" y1="900" x2="434.2" y2="629.6" stroke="#c8bdb0" stroke-opacity="0.292" stroke-width="1"/><line x1="-1186.0" y1="900" x2="442.5" y2="629.6" stroke="#c8bdb0" stroke-opacity="0.292" stroke-width="1"/><line x1="-1140.0" y1="900" x2="450.8" y2="629.6" stroke="#c8bdb0" stroke-opacity="0.292" stroke-width="1"/><line x1="-1094.0" y1="900" x2="459.1" y2="629.6" stroke="#c8bdb0" stroke-opacity="0.292" stroke-width="1"/><line x1="-1048.0" y1="900" x2="467.4" y2="629.6" stroke="#c8bdb0" stroke-opacity="0.292" stroke-width="1"/><line x1="-1002.0" y1="900" x2="475.6" y2="629.6" stroke="#c8bdb0" stroke-opacity="0.292" stroke-width="1"/><line x1="-956.0" y1="900" x2="483.9" y2="629.6" stroke="#c8bdb0" stroke-opacity="0.292" stroke-width="1"/><line x1="-910.0" y1="900" x2="492.2" y2="629.6" stroke="#c8bdb0" stroke-opacity="0.292" stroke-width="1"/><line x1="-864.0" y1="900" x2="500.5" y2="629.6" stroke="#c8bdb0" stroke-opacity="0.292" stroke-width="1"/><line x1="-818.0" y1="900" x2="508.8" y2="629.6" stroke="#c8bdb0" stroke-opacity="0.292" stroke-width="1"/><line x1="-772.0" y1="900" x2="517.0" y2="629.6" stroke="#c8bdb0" stroke-opacity="0.292" stroke-width="1"/><line x1="-726.0" y1="900" x2="525.3" y2="629.6" stroke="#c8bdb0" stroke-opacity="0.292" stroke-width="1"/><line x1="-680.0" y1="900" x2="533.6" y2="629.6" stroke="#c8bdb0" stroke-opacity="0.292" stroke-width="1"/><line x1="-634.0" y1="900" x2="541.9" y2="629.6" stroke="#c8bdb0" stroke-opacity="0.292" stroke-width="1"/><line x1="-588.0" y1="900" x2="550.2" y2="629.6" stroke="#c8bdb0" stroke-opacity="0.292" stroke-width="1"/><line x1="-542.0" y1="900" x2="558.4" y2="629.6" stroke="#c8bdb0" stroke-opacity="0.292" stroke-width="1"/><line x1="-496.0" y1="900" x2="566.7" y2="629.6" stroke="#c8bdb0" stroke-opacity="0.292" stroke-width="1"/><line x1="-450.0" y1="900" x2="575.0" y2="629.6" stroke="#c8bdb0" stroke-opacity="0.292" stroke-width="1"/><line x1="-404.0" y1="900" x2="583.3" y2="629.6" stroke="#c8bdb0" stroke-opacity="0.292" stroke-width="1"/><line x1="-358.0" y1="900" x2="591.6" y2="629.6" stroke="#c8bdb0" stroke-opacity="0.292" stroke-width="1"/><line x1="-312.0" y1="900" x2="599.8" y2="629.6" stroke="#c8bdb0" stroke-opacity="0.292" stroke-width="1"/><line x1="-266.0" y1="900" x2="608.1" y2="629.6" stroke="#c8bdb0" stroke-opacity="0.292" stroke-width="1"/><line x1="-220.0" y1="900" x2="616.4" y2="629.6" stroke="#c8bdb0" stroke-opacity="0.292" stroke-width="1"/><line x1="-174.0" y1="900" x2="624.7" y2="629.6" stroke="#c8bdb0" stroke-opacity="0.292" stroke-width="1"/><line x1="-128.0" y1="900" x2="633.0" y2="629.6" stroke="#c8bdb0" stroke-opacity="0.292" stroke-width="1"/><line x1="-82.0" y1="900" x2="641.2" y2="629.6" stroke="#c8bdb0" stroke-opacity="0.292" stroke-width="1"/><line x1="-36.0" y1="900" x2="649.5" y2="629.6" stroke="#c8bdb0" stroke-opacity="0.292" stroke-width="1"/><line x1="10.0" y1="900" x2="657.8" y2="629.6" stroke="#c8bdb0" stroke-opacity="0.292" stroke-width="1"/><line x1="56.0" y1="900" x2="666.1" y2="629.6" stroke="#c8bdb0" stroke-opacity="0.292" stroke-width="1"/><line x1="102.0" y1="900" x2="674.4" y2="629.6" stroke="#c8bdb0" stroke-opacity="0.292" stroke-width="1"/><line x1="148.0" y1="900" x2="682.6" y2="629.6" stroke="#c8bdb0" stroke-opacity="0.292" stroke-width="1"/><line x1="194.0" y1="900" x2="690.9" y2="629.6" stroke="#c8bdb0" stroke-opacity="0.292" stroke-width="1"/><line x1="240.0" y1="900" x2="699.2" y2="629.6" stroke="#c8bdb0" stroke-opacity="0.292" stroke-width="1"/><line x1="286.0" y1="900" x2="707.5" y2="629.6" stroke="#c8bdb0" stroke-opacity="0.292" stroke-width="1"/><line x1="332.0" y1="900" x2="715.8" y2="629.6" stroke="#c8bdb0" stroke-opacity="0.292" stroke-width="1"/><line x1="378.0" y1="900" x2="724.0" y2="629.6" stroke="#c8bdb0" stroke-opacity="0.292" stroke-width="1"/><line x1="424.0" y1="900" x2="732.3" y2="629.6" stroke="#c8bdb0" stroke-opacity="0.292" stroke-width="1"/><line x1="470.0" y1="900" x2="740.6" y2="629.6" stroke="#c8bdb0" stroke-opacity="0.292" stroke-width="1"/><line x1="516.0" y1="900" x2="748.9" y2="629.6" stroke="#c8bdb0" stroke-opacity="0.292" stroke-width="1"/><line x1="562.0" y1="900" x2="757.2" y2="629.6" stroke="#c8bdb0" stroke-opacity="0.292" stroke-width="1"/><line x1="608.0" y1="900" x2="765.4" y2="629.6" stroke="#c8bdb0" stroke-opacity="0.292" stroke-width="1"/><line x1="654.0" y1="900" x2="773.7" y2="629.6" stroke="#c8bdb0" stroke-opacity="0.292" stroke-width="1"/><line x1="700.0" y1="900" x2="782.0" y2="629.6" stroke="#c8bdb0" stroke-opacity="0.292" stroke-width="1"/><line x1="746.0" y1="900" x2="790.3" y2="629.6" stroke="#c8bdb0" stroke-opacity="0.292" stroke-width="1"/><line x1="792.0" y1="900" x2="798.6" y2="629.6" stroke="#c8bdb0" stroke-opacity="0.292" stroke-width="1"/><line x1="838.0" y1="900" x2="806.8" y2="629.6" stroke="#c8bdb0" stroke-opacity="0.292" stroke-width="1"/><line x1="884.0" y1="900" x2="815.1" y2="629.6" stroke="#c8bdb0" stroke-opacity="0.292" stroke-width="1"/><line x1="930.0" y1="900" x2="823.4" y2="629.6" stroke="#c8bdb0" stroke-opacity="0.292" stroke-width="1"/><line x1="976.0" y1="900" x2="831.7" y2="629.6" stroke="#c8bdb0" stroke-opacity="0.292" stroke-width="1"/><line x1="1022.0" y1="900" x2="840.0" y2="629.6" stroke="#c8bdb0" stroke-opacity="0.292" stroke-width="1"/><line x1="1068.0" y1="900" x2="848.2" y2="629.6" stroke="#c8bdb0" stroke-opacity="0.292" stroke-width="1"/><line x1="1114.0" y1="900" x2="856.5" y2="629.6" stroke="#c8bdb0" stroke-opacity="0.292" stroke-width="1"/><line x1="1160.0" y1="900" x2="864.8" y2="629.6" stroke="#c8bdb0" stroke-opacity="0.292" stroke-width="1"/><line x1="1206.0" y1="900" x2="873.1" y2="629.6" stroke="#c8bdb0" stroke-opacity="0.292" stroke-width="1"/><line x1="1252.0" y1="900" x2="881.4" y2="629.6" stroke="#c8bdb0" stroke-opacity="0.292" stroke-width="1"/><line x1="1298.0" y1="900" x2="889.6" y2="629.6" stroke="#c8bdb0" stroke-opacity="0.292" stroke-width="1"/><line x1="1344.0" y1="900" x2="897.9" y2="629.6" stroke="#c8bdb0" stroke-opacity="0.292" stroke-width="1"/><line x1="1390.0" y1="900" x2="906.2" y2="629.6" stroke="#c8bdb0" stroke-opacity="0.292" stroke-width="1"/><line x1="1436.0" y1="900" x2="914.5" y2="629.6" stroke="#c8bdb0" stroke-opacity="0.292" stroke-width="1"/><line x1="1482.0" y1="900" x2="922.8" y2="629.6" stroke="#c8bdb0" stroke-opacity="0.292" stroke-width="1"/><line x1="1528.0" y1="900" x2="931.0" y2="629.6" stroke="#c8bdb0" stroke-opacity="0.292" stroke-width="1"/><line x1="1574.0" y1="900" x2="939.3" y2="629.6" stroke="#c8bdb0" stroke-opacity="0.292" stroke-width="1"/><line x1="1620.0" y1="900" x2="947.6" y2="629.6" stroke="#c8bdb0" stroke-opacity="0.292" stroke-width="1"/><line x1="1666.0" y1="900" x2="955.9" y2="629.6" stroke="#c8bdb0" stroke-opacity="0.292" stroke-width="1"/><line x1="1712.0" y1="900" x2="964.2" y2="629.6" stroke="#c8bdb0" stroke-opacity="0.292" stroke-width="1"/><line x1="1758.0" y1="900" x2="972.4" y2="629.6" stroke="#c8bdb0" stroke-opacity="0.292" stroke-width="1"/><line x1="1804.0" y1="900" x2="980.7" y2="629.6" stroke="#c8bdb0" stroke-opacity="0.292" stroke-width="1"/><line x1="1850.0" y1="900" x2="989.0" y2="629.6" stroke="#c8bdb0" stroke-opacity="0.292" stroke-width="1"/><line x1="1896.0" y1="900" x2="997.3" y2="629.6" stroke="#c8bdb0" stroke-opacity="0.292" stroke-width="1"/><line x1="1942.0" y1="900" x2="1005.6" y2="629.6" stroke="#c8bdb0" stroke-opacity="0.292" stroke-width="1"/><line x1="1988.0" y1="900" x2="1013.8" y2="629.6" stroke="#c8bdb0" stroke-opacity="0.292" stroke-width="1"/><line x1="2034.0" y1="900" x2="1022.1" y2="629.6" stroke="#c8bdb0" stroke-opacity="0.292" stroke-width="1"/><line x1="2080.0" y1="900" x2="1030.4" y2="629.6" stroke="#c8bdb0" stroke-opacity="0.292" stroke-width="1"/><line x1="2126.0" y1="900" x2="1038.7" y2="629.6" stroke="#c8bdb0" stroke-opacity="0.292" stroke-width="1"/><line x1="2172.0" y1="900" x2="1047.0" y2="629.6" stroke="#c8bdb0" stroke-opacity="0.292" stroke-width="1"/><line x1="2218.0" y1="900" x2="1055.2" y2="629.6" stroke="#c8bdb0" stroke-opacity="0.292" stroke-width="1"/><line x1="2264.0" y1="900" x2="1063.5" y2="629.6" stroke="#c8bdb0" stroke-opacity="0.292" stroke-width="1"/><line x1="2310.0" y1="900" x2="1071.8" y2="629.6" stroke="#c8bdb0" stroke-opacity="0.292" stroke-width="1"/><line x1="2356.0" y1="900" x2="1080.1" y2="629.6" stroke="#c8bdb0" stroke-opacity="0.292" stroke-width="1"/><line x1="2402.0" y1="900" x2="1088.4" y2="629.6" stroke="#c8bdb0" stroke-opacity="0.292" stroke-width="1"/><line x1="2448.0" y1="900" x2="1096.6" y2="629.6" stroke="#c8bdb0" stroke-opacity="0.292" stroke-width="1"/><line x1="2494.0" y1="900" x2="1104.9" y2="629.6" stroke="#c8bdb0" stroke-opacity="0.292" stroke-width="1"/><line x1="2540.0" y1="900" x2="1113.2" y2="629.6" stroke="#c8bdb0" stroke-opacity="0.292" stroke-width="1"/><line x1="2586.0" y1="900" x2="1121.5" y2="629.6" stroke="#c8bdb0" stroke-opacity="0.292" stroke-width="1"/><line x1="2632.0" y1="900" x2="1129.8" y2="629.6" stroke="#c8bdb0" stroke-opacity="0.292" stroke-width="1"/><line x1="2678.0" y1="900" x2="1138.0" y2="629.6" stroke="#c8bdb0" stroke-opacity="0.292" stroke-width="1"/><line x1="2724.0" y1="900" x2="1146.3" y2="629.6" stroke="#c8bdb0" stroke-opacity="0.292" stroke-width="1"/><line x1="2770.0" y1="900" x2="1154.6" y2="629.6" stroke="#c8bdb0" stroke-opacity="0.292" stroke-width="1"/><line x1="2816.0" y1="900" x2="1162.9" y2="629.6" stroke="#c8bdb0" stroke-opacity="0.292" stroke-width="1"/><line x1="2862.0" y1="900" x2="1171.2" y2="629.6" stroke="#c8bdb0" stroke-opacity="0.292" stroke-width="1"/><line x1="2908.0" y1="900" x2="1179.4" y2="629.6" stroke="#c8bdb0" stroke-opacity="0.292" stroke-width="1"/><line x1="2954.0" y1="900" x2="1187.7" y2="629.6" stroke="#c8bdb0" stroke-opacity="0.292" stroke-width="1"/><line x1="3000.0" y1="900" x2="1196.0" y2="629.6" stroke="#c8bdb0" stroke-opacity="0.292" stroke-width="1"/><line x1="3046.0" y1="900" x2="1204.3" y2="629.6" stroke="#c8bdb0" stroke-opacity="0.292" stroke-width="1"/><line x1="3092.0" y1="900" x2="1212.6" y2="629.6" stroke="#c8bdb0" stroke-opacity="0.292" stroke-width="1"/><line x1="3138.0" y1="900" x2="1220.8" y2="629.6" stroke="#c8bdb0" stroke-opacity="0.292" stroke-width="1"/><line x1="3184.0" y1="900" x2="1229.1" y2="629.6" stroke="#c8bdb0" stroke-opacity="0.292" stroke-width="1"/><line x1="0" y1="629.6" x2="1600" y2="629.6" stroke="#c8bdb0" stroke-opacity="0.093" stroke-width="1"/><line x1="0" y1="630.0" x2="1600" y2="630.0" stroke="#c8bdb0" stroke-opacity="0.106" stroke-width="1"/><line x1="0" y1="631.2" x2="1600" y2="631.2" stroke="#c8bdb0" stroke-opacity="0.119" stroke-width="1"/><line x1="0" y1="633.2" x2="1600" y2="633.2" stroke="#c8bdb0" stroke-opacity="0.132" stroke-width="1"/><line x1="0" y1="636.0" x2="1600" y2="636.0" stroke="#c8bdb0" stroke-opacity="0.145" stroke-width="1"/><line x1="0" y1="639.6" x2="1600" y2="639.6" stroke="#c8bdb0" stroke-opacity="0.158" stroke-width="1"/><line x1="0" y1="644.0" x2="1600" y2="644.0" stroke="#c8bdb0" stroke-opacity="0.171" stroke-width="1"/><line x1="0" y1="649.2" x2="1600" y2="649.2" stroke="#c8bdb0" stroke-opacity="0.184" stroke-width="1"/><line x1="0" y1="655.2" x2="1600" y2="655.2" stroke="#c8bdb0" stroke-opacity="0.197" stroke-width="1"/><line x1="0" y1="662.0" x2="1600" y2="662.0" stroke="#c8bdb0" stroke-opacity="0.210" stroke-width="1"/><line x1="0" y1="669.6" x2="1600" y2="669.6" stroke="#c8bdb0" stroke-opacity="0.224" stroke-width="1"/><line x1="0" y1="678.0" x2="1600" y2="678.0" stroke="#c8bdb0" stroke-opacity="0.237" stroke-width="1"/><line x1="0" y1="687.2" x2="1600" y2="687.2" stroke="#c8bdb0" stroke-opacity="0.250" stroke-width="1"/><line x1="0" y1="697.2" x2="1600" y2="697.2" stroke="#c8bdb0" stroke-opacity="0.263" stroke-width="1"/><line x1="0" y1="708.0" x2="1600" y2="708.0" stroke="#c8bdb0" stroke-opacity="0.276" stroke-width="1"/><line x1="0" y1="719.6" x2="1600" y2="719.6" stroke="#c8bdb0" stroke-opacity="0.289" stroke-width="1"/><line x1="0" y1="732.0" x2="1600" y2="732.0" stroke="#c8bdb0" stroke-opacity="0.302" stroke-width="1"/><line x1="0" y1="745.2" x2="1600" y2="745.2" stroke="#c8bdb0" stroke-opacity="0.315" stroke-width="1"/><line x1="0" y1="759.2" x2="1600" y2="759.2" stroke="#c8bdb0" stroke-opacity="0.328" stroke-width="1"/><line x1="0" y1="774.0" x2="1600" y2="774.0" stroke="#c8bdb0" stroke-opacity="0.341" stroke-width="1"/><line x1="0" y1="789.6" x2="1600" y2="789.6" stroke="#c8bdb0" stroke-opacity="0.354" stroke-width="1"/><line x1="0" y1="806.0" x2="1600" y2="806.0" stroke="#c8bdb0" stroke-opacity="0.367" stroke-width="1"/><line x1="0" y1="823.2" x2="1600" y2="823.2" stroke="#c8bdb0" stroke-opacity="0.380" stroke-width="1"/><line x1="0" y1="841.2" x2="1600" y2="841.2" stroke="#c8bdb0" stroke-opacity="0.394" stroke-width="1"/><line x1="0" y1="860.0" x2="1600" y2="860.0" stroke="#c8bdb0" stroke-opacity="0.407" stroke-width="1"/><line x1="0" y1="879.6" x2="1600" y2="879.6" stroke="#c8bdb0" stroke-opacity="0.420" stroke-width="1"/><rect x="1079.0" y="709.5" width="269.8" height="86.6" fill="none" stroke="#f7f2ec" stroke-opacity="0.408" stroke-width="1.5" transform="rotate(-0.90 1213.8 752.8)"/><rect x="1398.1" y="861.5" width="337.9" height="101.2" fill="none" stroke="#f7f2ec" stroke-opacity="0.408" stroke-width="1.5" transform="rotate(-1.19 1567.0 912.1)"/><rect x="837.9" y="864.0" width="218.3" height="51.6" fill="none" stroke="#f7f2ec" stroke-opacity="0.408" stroke-width="1.5" transform="rotate(-0.68 947.1 889.8)"/><rect x="415.3" y="808.9" width="128.1" height="34.7" fill="none" stroke="#f7f2ec" stroke-opacity="0.408" stroke-width="1.5" transform="rotate(-0.29 479.4 826.2)"/><rect x="1260.9" y="703.2" width="308.6" height="68.8" fill="none" stroke="#f7f2ec" stroke-opacity="0.408" stroke-width="1.5" transform="rotate(-1.07 1415.2 737.6)"/><rect x="1319.8" y="771.2" width="321.2" height="31.3" fill="none" stroke="#f7f2ec" stroke-opacity="0.408" stroke-width="1.5" transform="rotate(-1.12 1480.4 786.9)"/><rect x="552.3" y="750.6" width="157.4" height="66.9" fill="none" stroke="#f7f2ec" stroke-opacity="0.408" stroke-width="1.5" transform="rotate(-0.42 630.9 784.0)"/><rect x="715.4" y="722.6" width="192.2" height="32.4" fill="none" stroke="#f7f2ec" stroke-opacity="0.408" stroke-width="1.5" transform="rotate(-0.57 811.5 738.8)"/><rect x="1372.8" y="832.3" width="332.5" height="78.6" fill="none" stroke="#f7f2ec" stroke-opacity="0.408" stroke-width="1.5" transform="rotate(-1.17 1539.0 871.6)"/><rect x="1167.9" y="812.2" width="288.8" height="75.9" fill="none" stroke="#f7f2ec" stroke-opacity="0.408" stroke-width="1.5" transform="rotate(-0.98 1312.3 850.1)"/><rect x="239.2" y="821.9" width="90.6" height="57.7" fill="none" stroke="#f7f2ec" stroke-opacity="0.408" stroke-width="1.5" transform="rotate(-0.13 284.4 850.7)"/><rect x="978.3" y="809.6" width="248.3" height="86.8" fill="none" stroke="#f7f2ec" stroke-opacity="0.408" stroke-width="1.5" transform="rotate(-0.81 1102.4 853.0)"/><rect x="1407.9" y="872.8" width="340.0" height="109.9" fill="none" stroke="#f7f2ec" stroke-opacity="0.408" stroke-width="1.5" transform="rotate(-1.20 1577.9 927.8)"/><rect x="951.6" y="778.8" width="242.6" height="63.0" fill="none" stroke="#f7f2ec" stroke-opacity="0.408" stroke-width="1.5" transform="rotate(-0.78 1072.8 810.3)"/><rect x="112.0" y="144.0" width="160.0" height="7" fill="#c8bdb0" fill-opacity="0.3"/><rect x="112.0" y="193.5" width="304.0" height="7" fill="#c8bdb0" fill-opacity="0.3"/><rect x="112.0" y="243.0" width="448.0" height="7" fill="#c8bdb0" fill-opacity="0.3"/><rect x="112.0" y="292.5" width="160.0" height="7" fill="#c8bdb0" fill-opacity="0.3"/><rect x="112.0" y="342.0" width="304.0" height="7" fill="#c8bdb0" fill-opacity="0.3"/><rect x="6.0" y="715.2" width="165.8" height="6.4" fill="none" fill-opacity="0" stroke="#f7f2ec" stroke-opacity="0.3" stroke-width="1"/><rect x="183.8" y="711.5" width="165.8" height="10.0" fill="none" fill-opacity="0" stroke="#f7f2ec" stroke-opacity="0.3" stroke-width="1"/><rect x="361.6" y="708.3" width="165.8" height="13.2" fill="none" fill-opacity="0" stroke="#f7f2ec" stroke-opacity="0.3" stroke-width="1"/><rect x="539.3" y="705.9" width="165.8" height="15.7" fill="none" fill-opacity="0" stroke="#f7f2ec" stroke-opacity="0.3" stroke-width="1"/><rect x="717.1" y="704.3" width="165.8" height="17.2" fill="none" fill-opacity="0" stroke="#f7f2ec" stroke-opacity="0.3" stroke-width="1"/><rect x="894.9" y="703.7" width="165.8" height="17.8" fill="none" fill-opacity="0" stroke="#f7f2ec" stroke-opacity="0.3" stroke-width="1"/><rect x="1072.7" y="704.2" width="165.8" height="17.4" fill="none" fill-opacity="0" stroke="#f7f2ec" stroke-opacity="0.3" stroke-width="1"/><rect x="1250.4" y="705.6" width="165.8" height="16.0" fill="none" fill-opacity="0" stroke="#f7f2ec" stroke-opacity="0.3" stroke-width="1"/><rect x="1428.2" y="707.9" width="165.8" height="13.7" fill="none" fill-opacity="0" stroke="#f7f2ec" stroke-opacity="0.3" stroke-width="1"/><line x1="0" y1="629.6" x2="1600" y2="629.6" stroke="#f7f2ec" stroke-opacity="0.5" stroke-width="1.5"/><g opacity="0.227"><rect x="1238.6" y="543.2" width="18.7" height="72.0" fill="#F2762B"/><rect x="1212.0" y="569.9" width="72.0" height="18.7" fill="#F2762B"/></g><g font-family="ui-monospace, monospace" font-size="17" fill="#c8bdb0" fill-opacity="0.55" letter-spacing="0.14em"><text x="40" y="52">02 / 08</text><text x="40" y="860">GRELHA</text><text x="1560" y="860" text-anchor="end">T 0.143</text></g></svg>